<svg width="655" height="656" xmlns="http://www.w3.org/2000/svg" xmlns:xlink="http://www.w3.org/1999/xlink" overflow="hidden"><defs><clipPath id="clip0"><rect x="1861" y="766" width="655" height="656"/></clipPath></defs><g clip-path="url(#clip0)" transform="translate(-1861 -766)"><path d="M2516 1094C2516 1275.15 2369.37 1422 2188.5 1422 2007.63 1422 1861 1275.15 1861 1094 1861 912.851 2007.63 766 2188.5 766 2369.37 766 2516 912.851 2516 1094Z" fill="#EF8035" fill-rule="evenodd"/><path d="M2132 1094C2132 1122.72 2108.49 1146 2079.5 1146 2050.51 1146 2027 1122.72 2027 1094 2027 1065.28 2050.51 1042 2079.5 1042 2108.49 1042 2132 1065.28 2132 1094Z" fill-rule="evenodd"/><path d="M2350 1094C2350 1122.72 2326.72 1146 2298 1146 2269.28 1146 2246 1122.72 2246 1094 2246 1065.28 2269.28 1042 2298 1042 2326.72 1042 2350 1065.28 2350 1094Z" fill-rule="evenodd"/><path d="M2278.66 1264.85 2098.31 1264.85C2090.14 1265.13 2083.27 1258.86 2082.99 1250.86 2082.71 1242.85 2089.11 1236.14 2097.3 1235.87 2097.63 1235.86 2097.98 1235.86 2098.31 1235.87L2278.66 1235.87C2286.83 1235.6 2293.7 1241.86 2293.97 1249.87 2294.25 1257.87 2287.85 1264.58 2279.67 1264.85 2279.34 1264.86 2278.99 1264.86 2278.66 1264.85Z" fill-rule="evenodd"/></g></svg>