<svg width="655" height="656" xmlns="http://www.w3.org/2000/svg" xmlns:xlink="http://www.w3.org/1999/xlink" overflow="hidden"><defs><clipPath id="clip0"><rect x="3320" y="766" width="655" height="656"/></clipPath></defs><g clip-path="url(#clip0)" transform="translate(-3320 -766)"><path d="M3975 1094C3975 1275.15 3828.37 1422 3647.5 1422 3466.63 1422 3320 1275.15 3320 1094 3320 912.851 3466.63 766 3647.5 766 3828.37 766 3975 912.851 3975 1094Z" fill="#6EBF43" fill-rule="evenodd"/><path d="M3587.55 1087.6C3585.6 1089.08 3582.94 1089.27 3580.78 1088.09 3529.15 1059.8 3473.36 1074.23 3461.24 1076.55 3460.86 1076.64 3460.47 1076.68 3460.07 1076.67 3457.7 1076.68 3455.56 1075.34 3454.52 1073.23 3452.98 1070.07 3454.95 1067.13 3457.72 1064.91 3466.58 1057.77 3524.41 1009.56 3588.34 1078.43 3590.68 1080.98 3590.5 1084.94 3587.93 1087.27 3587.81 1087.39 3587.69 1087.49 3587.55 1087.6Z" fill-rule="evenodd"/><path d="M3707.42 1087.6C3709.37 1089.08 3712.03 1089.27 3714.19 1088.09 3765.82 1059.8 3821.62 1074.23 3833.71 1076.55 3834.11 1076.63 3834.51 1076.68 3834.91 1076.67 3837.26 1076.68 3839.42 1075.34 3840.45 1073.23 3841.97 1070.07 3840.02 1067.13 3837.26 1064.91 3828.37 1057.77 3770.56 1009.56 3706.62 1078.43 3704.29 1080.98 3704.46 1084.94 3707.04 1087.27 3707.16 1087.39 3707.28 1087.49 3707.42 1087.6Z" fill-rule="evenodd"/><path d="M3530.98 1202.86C3530.98 1202.86 3549.91 1286.86 3647.48 1286.86 3744.23 1286.86 3763.98 1202.86 3763.98 1202.86Z" fill-rule="evenodd"/></g></svg>