<svg width="656" height="656" xmlns="http://www.w3.org/2000/svg" xmlns:xlink="http://www.w3.org/1999/xlink" overflow="hidden"><defs><clipPath id="clip0"><rect x="1131" y="766" width="656" height="656"/></clipPath></defs><g clip-path="url(#clip0)" transform="translate(-1131 -766)"><path d="M1787 1094C1787 1275.15 1640.15 1422 1459 1422 1277.85 1422 1131 1275.15 1131 1094 1131 912.851 1277.85 766 1459 766 1640.15 766 1787 912.851 1787 1094Z" fill="#EF4B3F" fill-rule="evenodd"/><path d="M1402 1065.5C1402 1094.49 1378.72 1118 1350 1118 1321.28 1118 1298 1094.49 1298 1065.5 1298 1036.51 1321.28 1013 1350 1013 1378.72 1013 1402 1036.51 1402 1065.5Z" fill-rule="evenodd"/><path d="M1621 1065.5C1621 1094.49 1597.49 1118 1568.5 1118 1539.5 1118 1516 1094.49 1516 1065.5 1516 1036.51 1539.5 1013 1568.5 1013 1597.49 1013 1621 1036.51 1621 1065.5Z" fill-rule="evenodd"/><path d="M1549.25 1264.86C1544.17 1264.86 1539.45 1262.26 1536.75 1257.99 1535.64 1256.27 1509.93 1217.19 1459.39 1217.19 1409.39 1217.19 1382.18 1257.76 1381.9 1258.18 1377.28 1264.85 1368.08 1266.53 1361.37 1261.93 1354.9 1257.5 1353.06 1248.8 1357.18 1242.14 1358.65 1239.93 1393.59 1187.86 1459.39 1187.86 1526.69 1187.86 1560.34 1240.17 1561.74 1242.38 1566.06 1249.26 1563.95 1258.31 1557.03 1262.6 1554.7 1264.05 1552 1264.82 1549.25 1264.83Z" fill-rule="evenodd"/></g></svg>