<svg width="655" height="656" xmlns="http://www.w3.org/2000/svg" xmlns:xlink="http://www.w3.org/1999/xlink" overflow="hidden"><defs><clipPath id="clip0"><rect x="203" y="818" width="655" height="656"/></clipPath></defs><g clip-path="url(#clip0)" transform="translate(-203 -818)"><path d="M858 1146C858 1327.15 711.374 1474 530.5 1474 349.627 1474 203 1327.15 203 1146 203 964.851 349.627 818 530.5 818 711.374 818 858 964.851 858 1146Z" fill="#CC2334" fill-rule="evenodd"/><path d="M347.373 1035.86C343.946 1035.76 341.087 1038.45 340.986 1041.86 340.902 1044.69 342.752 1047.21 345.478 1047.99 354.535 1050.35 375.136 1057.26 391.825 1074.31 367.881 1090.62 361.741 1123.19 378.11 1147.05 394.481 1170.92 427.162 1177.04 451.106 1160.72 465.427 1150.96 473.988 1134.79 473.983 1117.5 474.036 1047.56 374.18 1037.33 347.373 1035.86Z" fill-rule="evenodd"/><path d="M713.592 1035.86C686.838 1037.33 586.983 1047.53 586.983 1117.51 586.975 1146.42 610.482 1169.85 639.485 1169.86 668.491 1169.87 692.01 1146.45 692.018 1117.55 692.024 1100.26 683.462 1084.09 669.141 1074.33 685.83 1057.29 706.43 1050.38 715.487 1048.02 718.782 1047.08 720.687 1043.65 719.741 1040.37 718.959 1037.65 716.428 1035.81 713.592 1035.89Z" fill-rule="evenodd"/><path d="M620.26 1317.86C615.191 1317.86 610.479 1315.23 607.79 1310.9 606.668 1309.16 581.004 1269.57 530.504 1269.57 481.024 1269.57 454.167 1309.45 453.045 1311.14 448.581 1318 439.446 1319.91 432.64 1315.41 425.833 1310.91 423.935 1301.71 428.4 1294.85 429.85 1292.6 464.772 1239.86 530.504 1239.86 597.739 1239.86 631.348 1292.85 632.747 1295.09 637.057 1302.06 634.95 1311.22 628.039 1315.57 625.705 1317.04 623.011 1317.82 620.26 1317.82Z" fill-rule="evenodd"/></g></svg>